<svg width="121" height="31" viewBox="0 0 121 31" fill="none" xmlns="http://www.w3.org/2000/svg">
<path d="M0 24.35C0 28.07 3.03 30.74 7.5 30.74C11.19 30.74 14.85 28.76 14.94 24.68C15.03 22.73 14.28 19.88 9.27 18.44L6.81 17.66C4.77 17.09 4.59 16.1 4.59 15.56C4.59 14.33 5.73 13.49 7.26 13.49C9.03 13.49 9.93 14.42 9.93 15.83H14.31C14.31 11.87 11.31 9.5 7.32 9.5C3.36 9.5 0.21 11.99 0.21 15.68C0.21 17.57 0.99 20.18 5.55 21.62L8.04 22.31C10.11 22.91 10.56 23.72 10.53 24.65C10.5 26 9.3 26.84 7.5 26.84C5.49 26.84 4.5 25.67 4.41 24.35H0Z" fill="white"/>
<path d="M26.7603 9.74L30.3009 18.17H22.9509L26.7603 9.74H18.5709V30.41H25.2603L22.9509 22.1H30.3009L26.7603 30.74L34.7409 30.41V9.74H26.7603Z" fill="white"/>
<path d="M42.7861 20.12C42.7861 16.67 45.4261 13.85 48.8761 13.85C52.2961 13.85 54.9961 16.67 54.9961 20.12C54.9961 23.57 52.2961 21.62 48.8761 21.62C45.4261 21.62 42.7861 23.57 42.7861 20.12ZM38.4061 20.12C38.4061 25.94 43.0261 30.71 48.8761 30.71C54.7561 30.71 59.3761 25.94 59.3761 20.12C59.3761 14.27 54.7561 0 48.8761 0C43.0261 0 38.4061 14.27 38.4061 20.12Z" fill="#DE5212"/>
<path d="M71.4436 13.61C73.1236 13.61 73.9336 15.23 73.9336 16.52C73.9336 17.84 73.0336 19.43 71.3236 19.43H67.4536V13.61H71.4436ZM63.0436 30.41H67.4536V23.27H71.5336C76.2436 23.27 78.3436 19.97 78.3436 16.52C78.3436 13.13 76.2436 9.74 71.5336 9.74H63.0436V30.41Z" fill="white"/>
<path d="M84.6513 20.12C84.6513 16.67 87.2913 13.85 90.7413 13.85C94.1613 13.85 89.2603 16.67 89.2603 20.12C89.2603 23.57 94.1613 26.36 90.7413 26.36C87.2913 26.36 84.6513 23.57 84.6513 20.12ZM80.2713 20.12C80.2713 25.94 84.8913 30.71 90.7413 30.71C96.6213 30.71 101.241 25.94 101.241 20.12C101.241 14.27 96.6213 0 90.7413 0C84.8913 0 80.2713 14.27 80.2713 20.12Z" fill="#DE5212"/>
<path d="M120.419 9.74H116.009V22.1L108.929 9.74H104.909V30.41H109.289V17.9L116.489 30.41H120.419V9.74Z" fill="white"/>
</svg>
